<svg width="45" height="17" viewBox="0 0 45 17" fill="none" xmlns="http://www.w3.org/2000/svg">
<path d="M34.7463 17H9.51826C4.25087 17 0 13.2039 0 8.5C0 3.79612 4.25087 0 9.51826 0H34.7463C40.0137 0 44.2646 3.79612 44.2646 8.5C44.2646 13.2039 40.0137 17 34.7463 17Z" fill="#6DCBBA"/>
<path d="M7.35619 6.61C7.23153 6.654 7.00786 6.71267 6.68519 6.786C6.36253 6.852 6.10953 6.896 5.92619 6.918L5.80519 6.148C6.20119 6.06733 6.61186 5.92433 7.03719 5.719C7.46986 5.50633 7.82186 5.28633 8.09319 5.059H8.10419L8.97319 5.18V11.23L10.2272 11.351V12H6.03619V11.351L7.35619 11.241V6.61ZM13.9453 12.11C13.0066 12.11 12.2879 11.7983 11.7893 11.175C11.2979 10.5443 11.0523 9.69 11.0523 8.612C11.0523 7.84933 11.1953 7.204 11.4813 6.676C11.7673 6.14067 12.1449 5.741 12.6143 5.477C13.0909 5.20567 13.6189 5.07 14.1983 5.07C15.1443 5.07 15.8556 5.37067 16.3323 5.972C16.8089 6.566 17.0473 7.40933 17.0473 8.502C17.0473 9.25733 16.9079 9.91 16.6293 10.46C16.3579 11.0027 15.9876 11.4133 15.5183 11.692C15.0489 11.9707 14.5246 12.11 13.9453 12.11ZM14.0553 11.45C14.5173 11.45 14.8546 11.2153 15.0673 10.746C15.2873 10.2693 15.3973 9.56167 15.3973 8.623C15.3973 7.62567 15.2946 6.896 15.0893 6.434C14.8913 5.96467 14.5503 5.73 14.0663 5.73C13.1569 5.73 12.7023 6.65033 12.7023 8.491C12.7023 9.47367 12.8086 10.2143 13.0213 10.713C13.2413 11.2043 13.5859 11.45 14.0553 11.45ZM21.1748 12.11C20.2361 12.11 19.5174 11.7983 19.0188 11.175C18.5274 10.5443 18.2818 9.69 18.2818 8.612C18.2818 7.84933 18.4248 7.204 18.7108 6.676C18.9968 6.14067 19.3744 5.741 19.8438 5.477C20.3204 5.20567 20.8484 5.07 21.4278 5.07C22.3738 5.07 23.0851 5.37067 23.5618 5.972C24.0384 6.566 24.2768 7.40933 24.2768 8.502C24.2768 9.25733 24.1374 9.91 23.8588 10.46C23.5874 11.0027 23.2171 11.4133 22.7478 11.692C22.2784 11.9707 21.7541 12.11 21.1748 12.11ZM21.2848 11.45C21.7468 11.45 22.0841 11.2153 22.2968 10.746C22.5168 10.2693 22.6268 9.56167 22.6268 8.623C22.6268 7.62567 22.5241 6.896 22.3188 6.434C22.1208 5.96467 21.7798 5.73 21.2958 5.73C20.3864 5.73 19.9318 6.65033 19.9318 8.491C19.9318 9.47367 20.0381 10.2143 20.2508 10.713C20.4708 11.2043 20.8154 11.45 21.2848 11.45ZM31.9683 3.739H32.9913L29.4603 12H28.4483L31.9683 3.739ZM27.4803 8.535C27.0476 8.535 26.6773 8.43233 26.3693 8.227C26.0613 8.02167 25.8266 7.743 25.6653 7.391C25.5039 7.039 25.4233 6.65033 25.4233 6.225C25.4233 5.73367 25.5223 5.30833 25.7203 4.949C25.9183 4.58233 26.1859 4.30367 26.5233 4.113C26.8679 3.92233 27.2493 3.827 27.6673 3.827C28.3786 3.827 28.8993 4.03967 29.2293 4.465C29.5666 4.89033 29.7353 5.455 29.7353 6.159C29.7353 6.65033 29.6326 7.07567 29.4273 7.435C29.2293 7.79433 28.9579 8.06933 28.6133 8.26C28.2686 8.44333 27.8909 8.535 27.4803 8.535ZM27.5683 7.875C27.8763 7.875 28.0999 7.72833 28.2393 7.435C28.3859 7.13433 28.4593 6.72367 28.4593 6.203C28.4593 5.70433 28.3896 5.29733 28.2503 4.982C28.1183 4.65933 27.9019 4.498 27.6013 4.498C27.3006 4.498 27.0769 4.64467 26.9303 4.938C26.7836 5.23133 26.7103 5.63833 26.7103 6.159C26.7103 6.62833 26.7799 7.03167 26.9193 7.369C27.0586 7.70633 27.2749 7.875 27.5683 7.875ZM33.7833 11.846C33.3579 11.846 32.9876 11.7433 32.6723 11.538C32.3643 11.3253 32.1296 11.0467 31.9683 10.702C31.8069 10.35 31.7263 9.96133 31.7263 9.536C31.7263 9.04467 31.8253 8.61933 32.0233 8.26C32.2213 7.89333 32.4926 7.61467 32.8373 7.424C33.1819 7.23333 33.5633 7.138 33.9813 7.138C34.6853 7.138 35.2023 7.35067 35.5323 7.776C35.8696 8.20133 36.0383 8.766 36.0383 9.47C36.0383 9.96133 35.9356 10.3867 35.7303 10.746C35.5323 11.1053 35.2609 11.3803 34.9163 11.571C34.5716 11.7543 34.1939 11.846 33.7833 11.846ZM33.8713 11.175C34.1793 11.175 34.4029 11.0283 34.5423 10.735C34.6889 10.4417 34.7623 10.0347 34.7623 9.514C34.7623 9.02267 34.6926 8.61567 34.5533 8.293C34.4213 7.97033 34.2086 7.809 33.9153 7.809C33.6073 7.809 33.3799 7.95567 33.2333 8.249C33.0866 8.54233 33.0133 8.94933 33.0133 9.47C33.0133 9.93933 33.0829 10.3427 33.2223 10.68C33.3616 11.01 33.5779 11.175 33.8713 11.175Z" fill="black"/>
</svg>
